<?xml version="1.0" encoding="utf-8"?>
<!-- Generator: Adobe Illustrator 20.0.0, SVG Export Plug-In . SVG Version: 6.00 Build 0)  -->
<svg version="1.1" id="Ebene_1" xmlns="http://www.w3.org/2000/svg"  x="0px" y="0px"
	 viewBox="0 0 20 20" enable-background="new 0 0 20 20" xml:space="preserve">
<g>
	<g>
		<g>
			<path d="M16,1.1l3.1,3.1L6.4,16.9l-4.7,1.6l1.6-4.7L16,1.1 M16,0c-0.2,0-0.4,0.1-0.6,0.2L2.5,13.1c-0.1,0.1-0.2,0.2-0.2,0.3
				L0.1,20l6.6-2.2c0.1,0,0.2-0.1,0.3-0.2L19.9,4.8c0.3-0.3,0.3-0.9,0-1.2l-3.3-3.3C16.4,0.1,16.2,0,16,0L16,0z"/>
		</g>
	</g>
	<line fill="none" stroke="#000000" stroke-miterlimit="10" x1="3.1" y1="13.2" x2="7.1" y2="17.2"/>
</g>
<g>
</g>
<g>
</g>
<g>
</g>
<g>
</g>
<g>
</g>
<g>
</g>
<g>
</g>
<g>
</g>
<g>
</g>
<g>
</g>
<g>
</g>
<g>
</g>
<g>
</g>
<g>
</g>
<g>
</g>
</svg>
