<?xml version="1.0" encoding="utf-8"?>
<!-- Generator: Adobe Illustrator 26.1.0, SVG Export Plug-In . SVG Version: 6.00 Build 0)  -->
<svg version="1.1" id="a" xmlns="http://www.w3.org/2000/svg" xmlns:xlink="http://www.w3.org/1999/xlink" x="0px" y="0px"
	 viewBox="0 0 32 32" style="enable-background:new 0 0 32 32;" xml:space="preserve">
<style type="text/css">
	.st0{fill:none;}
	.st1{fill:#FFFFFF;}
</style>
<g>
	<path class="st0" d="M19.50977,15.87177V5.05585c0-0.53418-0.41016-0.96875-0.91504-0.96875H3.01807
		c-0.50488,0-0.91553,0.43457-0.91553,0.96875v10.81592c0,0.53418,0.41064,0.96875,0.91553,0.96875H3.9917
		c0.51465,0.01807,0.99414,0.2793,1.29688,0.69971c0.3042,0.36621,0.44678,0.89062,0.36523,1.38184l-0.21533,1.33887
		l3.29346-2.99609c0.31641-0.27539,0.70508-0.42432,1.10059-0.42432h8.76221C19.09961,16.84052,19.50977,16.40594,19.50977,15.87177
		z"/>
	<path class="st1" d="M28.99219,8.72919h-6.02033v2.11719h6.00764c0.50488,0,0.91504,0.43457,0.91504,0.96924v10.81543
		c0,0.53516-0.41016,0.96973-0.91504,0.96973h-0.97363c-0.49121,0-0.95898,0.22266-1.28223,0.61133
		c-0.32031,0.3877-0.46191,0.91211-0.38086,1.39941l0.21777,1.35742l-3.30176-2.9502
		c-0.30957-0.26953-0.69824-0.41797-1.09473-0.41797h-8.76172c-0.50439,0-0.91504-0.43457-0.91504-0.96973v-2.37012h-2.06396
		v2.37012c0,1.70215,1.33643,3.08691,2.979,3.08691h8.61719l5.40137,4.76562c0.19629,0.18164,0.42969,0.27734,0.67578,0.27734
		c0.56836,0,1.03125-0.47461,1.03125-1.05859l-0.65527-3.98438h0.51953c1.64258,0,2.97852-1.38477,2.97852-3.08691V11.81561
		C31.9707,10.11395,30.63477,8.72919,28.99219,8.72919z"/>
	<path class="st1" d="M21.57324,15.85809V5.05585c0-1.70166-1.33594-3.08643-2.97852-3.08643H3.01807
		c-1.64258,0-2.979,1.38477-2.979,3.08643v10.81592c0,1.70166,1.33643,3.08643,2.979,3.08643h0.52539l-0.604,3.79492
		c-0.10107,0.57031,0.26855,1.12012,0.89648,1.23438h0.1167c0.28662,0,0.49219-0.15723,0.6167-0.27148l5.40771-4.77148h8.61768
		C20.2373,18.94452,21.57324,17.55975,21.57324,15.85809z M9.83252,16.84052c-0.39551,0-0.78418,0.14893-1.10059,0.42432
		l-3.29346,2.99609l0.21533-1.33887c0.08154-0.49121-0.06104-1.01562-0.36523-1.38184
		c-0.30273-0.42041-0.78223-0.68164-1.29688-0.69971H3.01807c-0.50488,0-0.91553-0.43457-0.91553-0.96875V5.05585
		c0-0.53418,0.41064-0.96875,0.91553-0.96875h15.57666c0.50488,0,0.91504,0.43457,0.91504,0.96875v10.81592
		c0,0.53418-0.41016,0.96875-0.91504,0.96875H9.83252z"/>
</g>
</svg>
