<?xml version="1.0" encoding="utf-8"?>
<!-- Generator: Adobe Illustrator 20.0.0, SVG Export Plug-In . SVG Version: 6.00 Build 0)  -->
<svg version="1.1" id="Ebene_1" xmlns="http://www.w3.org/2000/svg"  x="0px" y="0px"
	 viewBox="0 0 95.4 23.7" style="enable-background:new 0 0 95.4 23.7;" xml:space="preserve">
<polygon points="57.2,0.6 53.9,13.9 50.8,0.6 44.6,0.6 51,23.2 56.3,23.2 59.7,10.3 63.1,23.2 68.6,23.2 74.5,0.6 68.8,0.6 65.8,14
	62.2,0.6 "/>
<polygon points="37.1,18 37.1,14.4 42.9,14.4 42.9,9.3 37.1,9.3 37.1,5.7 44,5.7 44,0.6 31.4,0.6 31.4,23.1 44,23.1 44,18 "/>
<polygon points="80.7,18 80.7,14.4 86.5,14.4 86.5,9.3 80.7,9.3 80.7,5.7 87.6,5.7 87.6,0.6 75,0.6 75,23.1 87.6,23.1 87.6,18 "/>
<polygon points="11.6,18 5.7,18 5.7,0.6 0,0.6 0,23.1 11.6,23.1 "/>
<polygon points="90.3,18 90.3,23.1 95.4,23.1 95.4,18 "/>
<path d="M30.5,10.8c0-2.6-0.8-10.2-9.1-10.8c-0.3,0-0.6,0-0.9,0c-8.3,0.6-9.1,8.1-9.1,10.8c0,0.3,0,1.8,0,2.1
	c0,2.6,0.8,10.2,9.1,10.8c0.3,0,0.6,0,0.9,0c8.3-0.6,9.1-8.1,9.1-10.8C30.5,12.6,30.5,11.1,30.5,10.8z M24.9,13.5
	c0,4.7-3.8,4.6-3.9,4.6s-3.9,0.1-3.9-4.6c0-0.5,0-2.8,0-3.3c0-4.7,3.8-4.6,3.9-4.6s3.9-0.1,3.9,4.6C24.9,10.8,24.9,13,24.9,13.5z"/>
</svg>
